<svg xmlns="http://www.w3.org/2000/svg" viewBox="0 0 64 64" fill="none">
  <rect width="64" height="64" rx="18" fill="#F5EDE3"/>
  <path
    d="M12 17.5C12 13.91 14.91 11 18.5 11H45.5C49.09 11 52 13.91 52 17.5V40.5C52 44.09 49.09 47 45.5 47H28.5L19.2 54C18.06 54.86 16.43 54.05 16.43 52.62V47H18.5C14.91 47 12 44.09 12 40.5V17.5Z"
    fill="#F68B1F"
  />
  <path
    d="M21 21.75C21 20.23 22.23 19 23.75 19H40.25C41.77 19 43 20.23 43 21.75V30.25C43 31.77 41.77 33 40.25 33H29.5L25.02 36.68C24.06 37.46 22.62 36.78 22.62 35.54V33H23.75C22.23 33 21 31.77 21 30.25V21.75Z"
    fill="white"
  />
</svg>
